<svg id="Capa_1" enable-background="new 0 0 495.069 495.069" height="512" viewBox="0 0 495.069 495.069" width="512" xmlns="http://www.w3.org/2000/svg"><circle cx="247.534" cy="247.534" fill="#fee565" r="247.534"/><path d="m76.911 247.534c0-123.628 90.658-226.085 209.103-244.561-12.532-1.955-25.398-2.973-38.48-2.973-136.709 0-247.534 110.825-247.534 247.534s110.825 247.534 247.534 247.534c13.081 0 25.955-1.019 38.488-2.974-118.445-18.476-209.111-120.931-209.111-244.56z" fill="#fdd62f"/><g><circle cx="149.733" cy="193.28" fill="#685e67" r="23.944"/></g><g><path d="m180.231 150.111c-4.143 0-7.5-3.358-7.5-7.5 0-12.681-10.316-22.998-22.998-22.998-12.681 0-22.997 10.317-22.997 22.998 0 4.142-3.357 7.5-7.5 7.5s-7.5-3.358-7.5-7.5c0-20.952 17.046-37.998 37.997-37.998 20.952 0 37.998 17.045 37.998 37.998 0 4.142-3.358 7.5-7.5 7.5z" fill="#685e67"/></g><g><circle cx="346.336" cy="193.28" fill="#685e67" r="23.944"/></g><g><path d="m376.833 150.111c-4.143 0-7.5-3.358-7.5-7.5 0-12.681-10.316-22.998-22.997-22.998-12.682 0-22.998 10.317-22.998 22.998 0 4.142-3.357 7.5-7.5 7.5s-7.5-3.358-7.5-7.5c0-20.952 17.046-37.998 37.998-37.998 20.951 0 37.997 17.045 37.997 37.998 0 4.142-3.357 7.5-7.5 7.5z" fill="#685e67"/></g><g><path d="m192.288 391.794c-2.481 0-4.909-1.23-6.338-3.48-2.221-3.497-1.187-8.131 2.311-10.352l11.931-7.576c42.267-26.84 91.074-41.027 141.145-41.027 4.143 0 7.5 3.358 7.5 7.5s-3.357 7.5-7.5 7.5c-47.218 0-93.244 13.379-133.104 38.69l-11.931 7.576c-1.247.791-2.639 1.169-4.014 1.169z" fill="#685e67"/></g><g><path d="m42.691 288.007c-.813 0-1.64-.133-2.451-.414-3.915-1.354-5.991-5.625-4.637-9.54l11.058-31.97c1.354-3.913 5.624-5.991 9.539-4.636 3.915 1.354 5.991 5.625 4.637 9.54l-11.058 31.97c-1.074 3.102-3.98 5.05-7.088 5.05z" fill="#ed6465"/></g><g><path d="m77.411 288.007c-.813 0-1.64-.133-2.451-.414-3.915-1.354-5.991-5.625-4.637-9.54l11.058-31.97c1.354-3.913 5.623-5.991 9.539-4.636 3.915 1.354 5.991 5.625 4.637 9.54l-11.058 31.97c-1.073 3.102-3.979 5.05-7.088 5.05z" fill="#f37e7f"/></g><g><path d="m407.6 288.007c-.813 0-1.64-.133-2.451-.414-3.915-1.354-5.991-5.625-4.637-9.54l11.058-31.97c1.354-3.913 5.624-5.991 9.539-4.636 3.915 1.354 5.991 5.625 4.637 9.54l-11.058 31.97c-1.074 3.102-3.98 5.05-7.088 5.05z" fill="#f37e7f"/></g><g><path d="m442.32 288.007c-.813 0-1.64-.133-2.451-.414-3.915-1.354-5.991-5.625-4.637-9.54l11.058-31.97c1.354-3.913 5.624-5.991 9.539-4.636 3.915 1.354 5.991 5.625 4.637 9.54l-11.058 31.97c-1.073 3.102-3.979 5.05-7.088 5.05z" fill="#f37e7f"/></g></svg>