<svg id="Capa_1" enable-background="new 0 0 512 512" height="512" viewBox="0 0 512 512" width="512" xmlns="http://www.w3.org/2000/svg"><g><g><g><path d="m302 390h-90v-128.687c49.234 13.823 56.406 9.432 90 0z" fill="#ffbe40"/></g></g><path d="m257 269.938v120.062h45v-128.687c-19.36 5.435-30.084 9.057-45 8.625z" fill="#ff9f40"/><g><path d="m137 180c-74.443 0-137-60.557-137-135v-15h137v30h-105.945c7.324 50.815 53.152 90 105.945 90z" fill="#ffbe40"/></g><g><g><path d="m377 180v-30c52.793 0 96.621-39.185 103.945-90h-103.945v-30h135v15c0 74.443-60.557 135-135 135z" fill="#ff9f40"/></g></g><g id="Trophy_2_"><g><path d="m257 300c-74.206 0-135-59.788-135-135v-165h270v165c0 75.202-60.942 135-135 135z" fill="#ffdf40"/></g><path d="m392 165v-165h-135v300c74.059 0 135-59.799 135-135z" fill="#ffbe40"/><g><path d="m307.068 203.892-50.068-15.674-50.068 15.674-.527-52.441-30.41-42.773 49.746-16.729 31.26-42.1 31.26 42.1 49.746 16.729-30.41 42.773z" fill="#ffbe40"/></g><path d="m307.068 203.892.528-52.442 30.41-42.773-49.746-16.729-31.26-42.099v138.369z" fill="#ff9f40"/><g><path d="m396.219 512h-278.438l37.5-152h203.438z" fill="#54678c"/></g><path d="m257 512h139.219l-37.5-152h-101.719z" fill="#3d4466"/><g><path d="m212 420h90v30h-90z" fill="#ffdf40"/></g><path d="m257 420h45v30h-45z" fill="#ffbe40"/></g></g></svg>